<mxfile host="app.diagrams.net" agent="Mozilla/5.0 (Windows NT 10.0; Win64; x64) AppleWebKit/537.36 (KHTML, like Gecko) Chrome/126.0.0.0 Safari/537.36 OPR/112.0.0.0" version="24.7.10">
  <diagram name="Page-1" id="rDHhOJvR6bwvzaAiOVwv">
    <mxGraphModel>
      <root>
        <mxCell id="0" />
        <mxCell id="1" parent="0" />
        <mxCell id="2" value="User" style="whiteSpace=wrap;strokeWidth=2;" vertex="1" parent="1">
          <mxGeometry x="262" width="48" height="33" as="geometry" />
        </mxCell>
        <mxCell id="3" value="Search" style="rounded=1;absoluteArcSize=1;arcSize=14;whiteSpace=wrap;strokeWidth=2;" vertex="1" parent="1">
          <mxGeometry x="92" y="230" width="63" height="33" as="geometry" />
        </mxCell>
        <mxCell id="4" value="Search Results" style="rhombus;strokeWidth=2;whiteSpace=wrap;" vertex="1" parent="1">
          <mxGeometry x="149" y="359" width="151" height="151" as="geometry" />
        </mxCell>
        <mxCell id="5" value="Book Details" style="whiteSpace=wrap;strokeWidth=2;" vertex="1" parent="1">
          <mxGeometry x="25" y="578" width="103" height="33" as="geometry" />
        </mxCell>
        <mxCell id="6" value="Read Book" style="rounded=1;absoluteArcSize=1;arcSize=14;whiteSpace=wrap;strokeWidth=2;" vertex="1" parent="1">
          <mxGeometry x="31" y="680" width="90" height="33" as="geometry" />
        </mxCell>
        <mxCell id="7" value="Filter" style="whiteSpace=wrap;strokeWidth=2;" vertex="1" parent="1">
          <mxGeometry x="197" y="578" width="55" height="33" as="geometry" />
        </mxCell>
        <mxCell id="8" value="Account" style="rounded=1;absoluteArcSize=1;arcSize=14;whiteSpace=wrap;strokeWidth=2;" vertex="1" parent="1">
          <mxGeometry x="621" y="102" width="74" height="33" as="geometry" />
        </mxCell>
        <mxCell id="9" value="Menu" style="rhombus;strokeWidth=2;whiteSpace=wrap;" vertex="1" parent="1">
          <mxGeometry x="614" y="204" width="87" height="87" as="geometry" />
        </mxCell>
        <mxCell id="10" value="Borrowed Books" style="rounded=1;absoluteArcSize=1;arcSize=14;whiteSpace=wrap;strokeWidth=2;" vertex="1" parent="1">
          <mxGeometry x="378" y="418" width="129" height="33" as="geometry" />
        </mxCell>
        <mxCell id="11" value="Wish List" style="rounded=1;absoluteArcSize=1;arcSize=14;whiteSpace=wrap;strokeWidth=2;" vertex="1" parent="1">
          <mxGeometry x="618" y="418" width="79" height="33" as="geometry" />
        </mxCell>
        <mxCell id="12" value="Edit Profile" style="rounded=1;absoluteArcSize=1;arcSize=14;whiteSpace=wrap;strokeWidth=2;" vertex="1" parent="1">
          <mxGeometry x="829" y="418" width="95" height="33" as="geometry" />
        </mxCell>
        <mxCell id="13" value="Categories" style="rounded=1;absoluteArcSize=1;arcSize=14;whiteSpace=wrap;strokeWidth=2;" vertex="1" parent="1">
          <mxGeometry x="199" y="102" width="91" height="33" as="geometry" />
        </mxCell>
        <mxCell id="14" value="Category" style="rounded=1;absoluteArcSize=1;arcSize=14;whiteSpace=wrap;strokeWidth=2;" vertex="1" parent="1">
          <mxGeometry x="204" y="230" width="80" height="33" as="geometry" />
        </mxCell>
        <mxCell id="15" value="Search" style="curved=1;startArrow=none;endArrow=block;exitX=-0.01;exitY=0.73;entryX=0.49;entryY=0.01;" edge="1" parent="1" source="2" target="3">
          <mxGeometry relative="1" as="geometry">
            <Array as="points">
              <mxPoint x="123" y="68" />
            </Array>
          </mxGeometry>
        </mxCell>
        <mxCell id="16" value="" style="curved=1;startArrow=none;endArrow=block;exitX=0.49;exitY=1.02;entryX=0.04;entryY=0;" edge="1" parent="1" source="3" target="4">
          <mxGeometry relative="1" as="geometry">
            <Array as="points">
              <mxPoint x="123" y="325" />
            </Array>
          </mxGeometry>
        </mxCell>
        <mxCell id="17" value="Select book" style="curved=1;startArrow=none;endArrow=block;exitX=0;exitY=0.87;entryX=0.5;entryY=0.01;" edge="1" parent="1" source="4" target="5">
          <mxGeometry relative="1" as="geometry">
            <Array as="points">
              <mxPoint x="76" y="544" />
            </Array>
          </mxGeometry>
        </mxCell>
        <mxCell id="18" value="Download/Read" style="curved=1;startArrow=none;endArrow=block;exitX=0.43;exitY=1.02;entryX=0.43;entryY=0;" edge="1" parent="1" source="5" target="6">
          <mxGeometry relative="1" as="geometry">
            <Array as="points">
              <mxPoint x="56" y="646" />
            </Array>
          </mxGeometry>
        </mxCell>
        <mxCell id="19" value="Return" style="curved=1;startArrow=none;endArrow=block;exitX=0.8;exitY=0;entryX=0.75;entryY=1.02;" edge="1" parent="1" source="6" target="5">
          <mxGeometry relative="1" as="geometry">
            <Array as="points">
              <mxPoint x="156" y="646" />
            </Array>
          </mxGeometry>
        </mxCell>
        <mxCell id="20" value="Filter results" style="curved=1;startArrow=none;endArrow=block;exitX=0.41;exitY=1;entryX=0.39;entryY=0.01;" edge="1" parent="1" source="4" target="7">
          <mxGeometry relative="1" as="geometry">
            <Array as="points">
              <mxPoint x="205" y="544" />
            </Array>
          </mxGeometry>
        </mxCell>
        <mxCell id="21" value="" style="curved=1;startArrow=none;endArrow=block;exitX=0.78;exitY=0.01;entryX=0.71;entryY=1;" edge="1" parent="1" source="7" target="4">
          <mxGeometry relative="1" as="geometry">
            <Array as="points">
              <mxPoint x="271" y="544" />
            </Array>
          </mxGeometry>
        </mxCell>
        <mxCell id="22" value="Manage Account" style="curved=1;startArrow=none;endArrow=block;exitX=0.99;exitY=0.61;entryX=0.49;entryY=-0.01;" edge="1" parent="1" source="2" target="8">
          <mxGeometry relative="1" as="geometry">
            <Array as="points">
              <mxPoint x="657" y="68" />
            </Array>
          </mxGeometry>
        </mxCell>
        <mxCell id="23" value="" style="curved=1;startArrow=none;endArrow=block;exitX=0.49;exitY=1.01;entryX=0.5;entryY=0;" edge="1" parent="1" source="8" target="9">
          <mxGeometry relative="1" as="geometry">
            <Array as="points" />
          </mxGeometry>
        </mxCell>
        <mxCell id="24" value="View Borrowed Books" style="curved=1;startArrow=none;endArrow=block;exitX=0;exitY=0.62;entryX=0.38;entryY=-0.01;" edge="1" parent="1" source="9" target="10">
          <mxGeometry relative="1" as="geometry">
            <Array as="points">
              <mxPoint x="341" y="325" />
            </Array>
          </mxGeometry>
        </mxCell>
        <mxCell id="25" value="Return" style="curved=1;startArrow=none;endArrow=block;exitX=0.52;exitY=-0.01;entryX=0;entryY=0.69;" edge="1" parent="1" source="10" target="9">
          <mxGeometry relative="1" as="geometry">
            <Array as="points">
              <mxPoint x="462" y="325" />
            </Array>
          </mxGeometry>
        </mxCell>
        <mxCell id="26" value="View Wish List" style="curved=1;startArrow=none;endArrow=block;exitX=0;exitY=0.88;entryX=0.3;entryY=-0.01;" edge="1" parent="1" source="9" target="11">
          <mxGeometry relative="1" as="geometry">
            <Array as="points">
              <mxPoint x="557" y="325" />
            </Array>
          </mxGeometry>
        </mxCell>
        <mxCell id="27" value="Add/Remove" style="curved=1;startArrow=none;endArrow=block;exitX=0.53;exitY=-0.01;entryX=0.61;entryY=0.99;" edge="1" parent="1" source="11" target="9">
          <mxGeometry relative="1" as="geometry">
            <Array as="points">
              <mxPoint x="675" y="325" />
            </Array>
          </mxGeometry>
        </mxCell>
        <mxCell id="28" value="Edit Profile" style="curved=1;startArrow=none;endArrow=block;exitX=1;exitY=0.81;entryX=0.35;entryY=-0.01;" edge="1" parent="1" source="9" target="12">
          <mxGeometry relative="1" as="geometry">
            <Array as="points">
              <mxPoint x="781" y="325" />
            </Array>
          </mxGeometry>
        </mxCell>
        <mxCell id="29" value="Save Changes" style="curved=1;startArrow=none;endArrow=block;exitX=0.52;exitY=-0.01;entryX=1;entryY=0.66;" edge="1" parent="1" source="12" target="9">
          <mxGeometry relative="1" as="geometry">
            <Array as="points">
              <mxPoint x="890" y="325" />
            </Array>
          </mxGeometry>
        </mxCell>
        <mxCell id="30" value="Browse Categories" style="curved=1;startArrow=none;endArrow=block;exitX=0.21;exitY=1.01;entryX=0.5;entryY=-0.01;" edge="1" parent="1" source="2" target="13">
          <mxGeometry relative="1" as="geometry">
            <Array as="points">
              <mxPoint x="244" y="68" />
            </Array>
          </mxGeometry>
        </mxCell>
        <mxCell id="31" value="Select Category" style="curved=1;startArrow=none;endArrow=block;exitX=0.5;exitY=1.01;entryX=0.5;entryY=0.01;" edge="1" parent="1" source="13" target="14">
          <mxGeometry relative="1" as="geometry">
            <Array as="points" />
          </mxGeometry>
        </mxCell>
        <mxCell id="32" value="" style="curved=1;startArrow=none;endArrow=block;exitX=0.5;exitY=1.02;entryX=0.59;entryY=0;" edge="1" parent="1" source="14" target="4">
          <mxGeometry relative="1" as="geometry">
            <Array as="points">
              <mxPoint x="244" y="325" />
            </Array>
          </mxGeometry>
        </mxCell>
      </root>
    </mxGraphModel>
  </diagram>
</mxfile>
